<svg width="811" height="1058" viewBox="0 0 811 1058" fill="none" xmlns="http://www.w3.org/2000/svg">
<path d="M201.218 114.38L405.712 233.613L603.78 117.946L810.102 238.452L810.102 700.846L618.771 811.773L618.588 569.426L402.193 696.075V937.957L204.825 1056.98L2.4834 935.779L2.48347 693.041L201.47 578.313L201.218 114.38Z" fill="#FFEE00"/>
<path d="M406.02 233.788L401.722 697.171L201.358 577.956V114.571L406.02 233.788Z" fill="#7D3BFF"/>
<path fill-rule="evenodd" clip-rule="evenodd" d="M405.717 233.614L201.213 114.379L402.523 0L603.78 117.947L405.717 233.614Z" fill="#7D3BFF"/>
<path fill-rule="evenodd" clip-rule="evenodd" d="M204.504 811.309L0 692.073L201.31 577.694L402.567 695.641L204.504 811.309Z" fill="#7D3BFF"/>
<path d="M603.784 348.922V117.961L809.894 238.438L603.784 348.922Z" fill="#7D3BFF"/>
<path d="M204.872 1057.66V810.816L2.50391 692.917V936.988L204.872 1057.66Z" fill="#7D3BFF"/>
</svg>
